 <svg xmlns="http://www.w3.org/2000/svg">
  <symbol viewBox="0 0 53 66" id="advantage-1">
  <path d="M51.667 62.375C51.667 63.75 50.542 64.875 49.167 64.875H4.16699C2.79199 64.875 1.66699 63.75 1.66699 62.375V3.625C1.66699 2.25 2.79199 1.125 4.16699 1.125H49.167C50.542 1.125 51.667 2.25 51.667 3.625V62.375Z" stroke="#E23F38" stroke-width="2" stroke-miterlimit="10" stroke-linecap="round" stroke-linejoin="round"/>
  <path d="M1.66699 42.625H50.167" stroke="#E23F38" stroke-width="2" stroke-miterlimit="10" stroke-linecap="round" stroke-linejoin="round"/>
  <path d="M1.66699 21.375H51.667" stroke="#E23F38" stroke-width="2" stroke-miterlimit="10" stroke-linecap="round" stroke-linejoin="round"/>
  <path d="M42.292 13C44.0179 13 45.417 11.6009 45.417 9.875C45.417 8.14911 44.0179 6.75 42.292 6.75C40.5661 6.75 39.167 8.14911 39.167 9.875C39.167 11.6009 40.5661 13 42.292 13Z" stroke="#E23F38" stroke-width="2" stroke-miterlimit="10" stroke-linecap="round" stroke-linejoin="round"/>
  <path d="M42.292 36.125C44.0179 36.125 45.417 34.7259 45.417 33C45.417 31.2741 44.0179 29.875 42.292 29.875C40.5661 29.875 39.167 31.2741 39.167 33C39.167 34.7259 40.5661 36.125 42.292 36.125Z" stroke="#E23F38" stroke-width="2" stroke-miterlimit="10" stroke-linecap="round" stroke-linejoin="round"/>
  <path d="M42.292 57.375C44.0179 57.375 45.417 55.9759 45.417 54.25C45.417 52.5241 44.0179 51.125 42.292 51.125C40.5661 51.125 39.167 52.5241 39.167 54.25C39.167 55.9759 40.5661 57.375 42.292 57.375Z" stroke="#E23F38" stroke-width="2" stroke-miterlimit="10" stroke-linecap="round" stroke-linejoin="round"/>
  <path d="M10.792 9.875H33.292" stroke="#E23F38" stroke-width="2" stroke-miterlimit="10" stroke-linecap="round" stroke-linejoin="round"/>
  <path d="M10.792 33.625H33.292" stroke="#E23F38" stroke-width="2" stroke-miterlimit="10" stroke-linecap="round" stroke-linejoin="round"/>
  <path d="M10.792 54.875H33.292" stroke="#E23F38" stroke-width="2" stroke-miterlimit="10" stroke-linecap="round" stroke-linejoin="round"/>
  </symbol>

  <symbol viewBox="0 0 80 80" id="advantage-2">
  <path d="M67.3248 34.2625V48.8875C67.3248 49.8821 66.9297 50.8359 66.2264 51.5391C65.5232 52.2424 64.5694 52.6375 63.5748 52.6375H14.0373C13.004 52.6375 12.0126 52.2287 11.2796 51.5004C10.5465 50.7721 10.1314 49.7833 10.1248 48.75V15.8375C10.1248 15.1745 10.3882 14.5386 10.857 14.0697C11.3259 13.6009 11.9618 13.3375 12.6248 13.3375H49.6623M67.9373 60.9625H10.4373C8.94215 60.9625 7.50823 60.3685 6.45099 59.3113C5.39375 58.2541 4.7998 56.8201 4.7998 55.325V52.675H72.9498V55.9625C72.9498 56.6202 72.8201 57.2714 72.568 57.8788C72.316 58.4862 71.9465 59.038 71.4809 59.5025C71.0153 59.9669 70.4626 60.3349 69.8546 60.5855C69.2465 60.836 68.595 60.9641 67.9373 60.9625Z" stroke="#E23F38" stroke-width="2.5"/>
  <path d="M61.5876 6.5375L50.0001 11.35C49.8873 11.3974 49.7913 11.4775 49.7245 11.58C49.6576 11.6825 49.623 11.8027 49.6251 11.925V22.1875C49.6242 24.6769 50.2715 27.1236 51.5033 29.2868C52.7351 31.4501 54.5088 33.2554 56.6501 34.525L61.7751 37.5875L66.7751 34.5375C68.9002 33.2613 70.6586 31.4565 71.8788 29.2987C73.0989 27.1409 73.7393 24.7039 73.7376 22.225V11.3375C73.7385 11.2105 73.7007 11.0863 73.6292 10.9814C73.5578 10.8764 73.456 10.7957 73.3376 10.75L62.0501 6.525C61.8996 6.4723 61.735 6.47674 61.5876 6.5375V6.5375Z" stroke="#E23F38" stroke-width="2.5"/>
  <path d="M55.9375 22.6125L60.1375 25.775L67.55 15.375" stroke="#E23F38" stroke-width="2.5"/>
  </symbol>

  <symbol viewBox="0 0 81 80" id="advantage-3">
  <path d="M16.4717 39.75V32.625C16.4717 26.2963 18.9858 20.2268 23.4608 15.7517C27.9359 11.2766 34.0055 8.76251 40.3342 8.76251C46.6629 8.76251 52.7324 11.2766 57.2075 15.7517C61.6826 20.2268 64.1967 26.2963 64.1967 32.625V39.75" stroke="#E23F38" stroke-width="2.5" stroke-linecap="round"/>
  <path d="M64.9592 56.95V63.2C64.9592 64.5261 64.4324 65.7979 63.4947 66.7355C62.557 67.6732 61.2853 68.2 59.9592 68.2H46.0342M15.4092 39.75H21.2842V56.475H15.4092C14.4146 56.475 13.4608 56.0799 12.7575 55.3766C12.0543 54.6734 11.6592 53.7196 11.6592 52.725V43.5C11.6592 42.5054 12.0543 41.5516 12.7575 40.8484C13.4608 40.1451 14.4146 39.75 15.4092 39.75V39.75ZM65.2592 56.475H59.3842V39.75H65.2592C66.2537 39.75 67.2076 40.1451 67.9108 40.8484C68.6141 41.5516 69.0092 42.5054 69.0092 43.5V52.725C69.0092 53.7196 68.6141 54.6734 67.9108 55.3766C67.2076 56.0799 66.2537 56.475 65.2592 56.475V56.475Z" stroke="#E23F38" stroke-width="2.5" stroke-linecap="round"/>
  <path d="M43.5215 64.9H38.3965C37.0158 64.9 35.8965 66.0193 35.8965 67.4V68.7375C35.8965 70.1182 37.0158 71.2375 38.3965 71.2375H43.5215C44.9022 71.2375 46.0215 70.1182 46.0215 68.7375V67.4C46.0215 66.0193 44.9022 64.9 43.5215 64.9Z" stroke="#E23F38" stroke-width="2.5" stroke-linecap="round"/>
  </symbol>


  <symbol viewBox="0 0 20 20" id="tabs-icon">
  <path d="M16.6663 18.3333H3.33301V16.6667C3.33301 15.5616 3.77199 14.5018 4.5534 13.7204C5.3348 12.939 6.39461 12.5 7.49967 12.5H12.4997C13.6047 12.5 14.6645 12.939 15.446 13.7204C16.2274 14.5018 16.6663 15.5616 16.6663 16.6667V18.3333ZM9.99967 10.8333C9.34306 10.8333 8.69288 10.704 8.08626 10.4527C7.47963 10.2015 6.92843 9.83317 6.46414 9.36888C5.99985 8.90458 5.63155 8.35339 5.38028 7.74676C5.129 7.14013 4.99967 6.48995 4.99967 5.83334C4.99967 5.17673 5.129 4.52655 5.38028 3.91993C5.63155 3.3133 5.99985 2.7621 6.46414 2.29781C6.92843 1.83352 7.47963 1.46522 8.08626 1.21395C8.69288 0.962672 9.34306 0.833343 9.99967 0.833344C11.3258 0.833344 12.5975 1.36013 13.5352 2.29781C14.4729 3.23549 14.9997 4.50726 14.9997 5.83334C14.9997 7.15943 14.4729 8.4312 13.5352 9.36888C12.5975 10.3066 11.3258 10.8333 9.99967 10.8333Z" fill="currentColor"/>
  </symbol>

 </svg>